# xmcd
#
# Track frame offsets:
# 150
# 21314
# 39248
# 60119
# 78246
# 96957
# 113982
# 128511
# 142070
# 155918
# 171077
# 190430
# 219887
#
# Disc length: 3383 seconds
#
#
# Revision: 0
# Processed by: cddbd v1.5.1PL0 Copyright (c) Steve Scherf et al.
# Submitted via: FreeRIP 2.942 
#
DISCID=ab0d350d
DTITLE=Dolly Parton - Treasures
DYEAR=1996
DGENRE=Country
TTITLE0=Peace Train
TTITLE1=Today I Started Loving You Again
TTITLE2=Just When I Needed You Most
TTITLE3=Something's Burning
TTITLE4=Before The Next Teardrop Falls
TTITLE5=After The Goldrush
TTITLE6=Walking On Sunshine
TTITLE7=Behind Closed Doors
TTITLE8=Don't Let Me Cross Over
TTITLE9=Satin Sheets
TTITLE10=For The Good Times
TTITLE11=Peace Train (Holy Roller Remix)
TTITLE12=Peace Train (Junior Vasquez Remix)
EXTD=Why must we go on hating?\nWhy can't we live in bliss?
EXTT0=
EXTT1=
EXTT2=
EXTT3=
EXTT4=
EXTT5=
EXTT6=
EXTT7=
EXTT8=
EXTT9=
EXTT10=
EXTT11=
EXTT12=
PLAYORDER=
